<svg width="167" height="31" viewBox="0 0 167 31" fill="none" xmlns="http://www.w3.org/2000/svg">
<path d="M0.676758 24V7.36001H4.77276L4.83676 9.31201H4.90076C5.51942 8.56535 6.22342 8.00001 7.01276 7.61601C7.82342 7.23201 8.77276 7.04001 9.86076 7.04001C10.9274 7.04001 11.8341 7.23201 12.5808 7.61601C13.3274 8.00001 13.8608 8.56535 14.1808 9.31201H14.2448C14.9061 8.52268 15.6528 7.94668 16.4848 7.58401C17.3168 7.22135 18.2874 7.04001 19.3968 7.04001C21.1674 7.04001 22.4474 7.50935 23.2368 8.44801C24.0474 9.38668 24.4528 10.8693 24.4528 12.896V24H20.1648V13.984C20.1648 12.832 19.9834 11.9893 19.6208 11.456C19.2581 10.9227 18.6714 10.656 17.8608 10.656C16.9008 10.656 16.1434 10.9867 15.5888 11.648C15.0341 12.288 14.7568 13.1413 14.7568 14.208V24H10.4368V13.76C10.4368 12.736 10.2341 11.968 9.82876 11.456C9.44476 10.9227 8.86876 10.656 8.10076 10.656C7.52476 10.656 7.00209 10.816 6.53276 11.136C6.06342 11.4347 5.69009 11.8507 5.41276 12.384C5.13542 12.9173 4.99676 13.5253 4.99676 14.208V24H0.676758Z" fill="white"/>
<path d="M29.875 30.72L32.627 23.904L26.067 7.39201L30.771 7.36001L34.803 19.68H34.867L38.931 7.36001H43.667L34.515 30.72H29.875Z" fill="white"/>
<path d="M49.6765 24L45.3885 7.36001H49.9965L52.3005 19.936H52.3645L54.7325 7.36001H60.3645L62.7645 19.936H62.8285L65.1325 7.36001H69.7085L65.4525 24H59.9485L57.5805 11.616H57.5165L55.1485 24H49.6765Z" fill="white"/>
<path d="M79.8203 24.32C77.0896 24.32 74.9776 23.5733 73.4843 22.08C72.0123 20.5867 71.2763 18.4533 71.2763 15.68C71.2763 12.9067 72.0123 10.7733 73.4843 9.28001C74.9776 7.78668 77.0896 7.04001 79.8203 7.04001C82.5509 7.04001 84.6523 7.78668 86.1243 9.28001C87.5963 10.7733 88.3323 12.9067 88.3323 15.68C88.3323 18.4533 87.5963 20.5867 86.1243 22.08C84.6523 23.5733 82.5509 24.32 79.8203 24.32ZM79.8203 20.896C81.1856 20.896 82.2096 20.4587 82.8923 19.584C83.5963 18.7093 83.9483 17.408 83.9483 15.68C83.9483 13.952 83.5963 12.6507 82.8923 11.776C82.2096 10.9013 81.1856 10.464 79.8203 10.464C78.4763 10.464 77.4416 10.9013 76.7163 11.776C76.0123 12.6507 75.6603 13.952 75.6603 15.68C75.6603 17.408 76.0123 18.7093 76.7163 19.584C77.4416 20.4587 78.4763 20.896 79.8203 20.896Z" fill="white"/>
<path d="M91.6455 24V7.36001H95.8695L95.9015 10.464H95.9975C96.5522 9.71735 97.2028 9.09868 97.9495 8.60801C98.7175 8.09601 99.5495 7.71202 100.446 7.45601C101.363 7.17868 102.302 7.04001 103.262 7.04001V10.784C101.939 10.784 100.734 11.0293 99.6455 11.52C98.5575 12.0107 97.6935 12.6827 97.0535 13.536C96.4135 14.368 96.0935 15.296 96.0935 16.32V24H91.6455Z" fill="white"/>
<path d="M106.083 24V0.640015H110.499V14.016H110.563L116.867 7.36001H122.243L114.275 15.36L122.531 24H117.155L110.563 16.704H110.499V24H106.083Z" fill="white"/>
<path d="M126.357 24V0.640015H127.957V24H126.357Z" fill="white"/>
<path d="M137.908 24.32C136.222 24.32 134.878 23.872 133.876 22.976C132.873 22.08 132.372 20.864 132.372 19.328C132.372 17.4293 133.161 15.9787 134.74 14.976C136.34 13.9733 138.622 13.472 141.588 13.472H144.436C144.436 12.1707 144.297 11.1573 144.02 10.432C143.742 9.70668 143.262 9.19468 142.58 8.89601C141.897 8.57601 140.958 8.41601 139.764 8.41601C138.676 8.41601 137.598 8.53335 136.532 8.76801C135.465 8.98135 134.441 9.30135 133.46 9.72801L133.012 8.48001C134.057 8.01068 135.166 7.65868 136.34 7.42402C137.513 7.16801 138.708 7.04001 139.924 7.04001C141.438 7.04001 142.644 7.25335 143.54 7.68001C144.436 8.08535 145.076 8.76801 145.46 9.72801C145.844 10.6667 146.036 11.9467 146.036 13.568V24H144.5V21.376H144.436C143.881 22.2293 142.996 22.9333 141.78 23.488C140.564 24.0427 139.273 24.32 137.908 24.32ZM138.324 22.976C139.476 22.976 140.51 22.752 141.428 22.304C142.345 21.856 143.07 21.248 143.604 20.48C144.158 19.712 144.436 18.8693 144.436 17.952V14.752H141.748C139.166 14.752 137.214 15.136 135.892 15.904C134.59 16.672 133.94 17.7813 133.94 19.232C133.94 20.384 134.324 21.3013 135.092 21.984C135.86 22.6453 136.937 22.976 138.324 22.976Z" fill="white"/>
<path d="M159.03 24.32C157.729 24.32 156.524 24.064 155.414 23.552C154.305 23.0187 153.473 22.3253 152.918 21.472H152.854V24H151.35V0.640015H152.918V9.88801H152.982C153.537 9.01335 154.358 8.32001 155.446 7.80801C156.534 7.29601 157.729 7.04001 159.03 7.04001C161.249 7.04001 162.977 7.79735 164.214 9.31201C165.452 10.8267 166.07 12.9493 166.07 15.68C166.07 18.3893 165.452 20.512 164.214 22.048C162.977 23.5627 161.249 24.32 159.03 24.32ZM158.742 22.944C160.577 22.944 161.996 22.3147 162.998 21.056C164.001 19.7973 164.502 18.0053 164.502 15.68C164.502 13.3547 164.001 11.5627 162.998 10.304C161.996 9.04535 160.577 8.41601 158.742 8.41601C157.612 8.41601 156.609 8.65068 155.734 9.12001C154.86 9.58935 154.166 10.24 153.654 11.072C153.164 11.8827 152.918 12.8213 152.918 13.888V17.472C152.918 18.5387 153.164 19.488 153.654 20.32C154.166 21.1307 154.86 21.7707 155.734 22.24C156.609 22.7093 157.612 22.944 158.742 22.944Z" fill="white"/>
</svg>
