<svg width="512" height="512" viewBox="0 0 512 512" fill="none" xmlns="http://www.w3.org/2000/svg">
<g clip-path="url(#clip0_15_11)">
<rect x="10" y="10" width="492" height="492" rx="140" stroke="white" stroke-width="20"/>
<path d="M256 386C184.203 386 126 327.797 126 256C126 184.203 184.203 126 256 126C327.797 126 386 184.203 386 256C386 327.797 327.797 386 256 386Z" stroke="white" stroke-width="20"/>
<path d="M402 140C385.431 140 372 126.569 372 110C372 93.4315 385.431 80 402 80C418.569 80 432 93.4315 432 110C432 126.569 418.569 140 402 140Z" stroke="white" stroke-width="20"/>
</g>
<defs>
<clipPath id="clip0_15_11">
<rect width="512" height="512" fill="white"/>
</clipPath>
</defs>
</svg>
