<svg width="512" height="512" viewBox="0 0 512 512" fill="none" xmlns="http://www.w3.org/2000/svg">
<g clip-path="url(#clip0_15_3)">
<path d="M20 20H492V340H193.317C200.631 345.695 207.09 352.437 212.469 360H492C503.046 360 512 351.046 512 340V20C512 8.95431 503.046 0 492 0H20C8.95431 0 0 8.95432 0 20V340C0 351.046 8.95431 360 20 360H57.5311C62.9103 352.437 69.3694 345.695 76.6834 340H20V20Z" fill="white"/>
<path d="M20 20H492V340H193.317C200.631 345.695 207.09 352.437 212.469 360H492C503.046 360 512 351.046 512 340V20C512 8.95431 503.046 0 492 0H20C8.95431 0 0 8.95432 0 20V340C0 351.046 8.95431 360 20 360H57.5311C62.9103 352.437 69.3694 345.695 76.6834 340H20V20Z" stroke="white"/>
<circle cx="135" cy="265" r="65" stroke="white" stroke-width="20"/>
<path d="M220 415V492C220 497.523 215.523 502 210 502H60C54.4772 502 50 497.523 50 492V415C50 368.056 88.0558 330 135 330C181.944 330 220 368.056 220 415Z" stroke="white" stroke-width="20"/>
<path d="M79 70L433 70M79 120L433 120M250.845 170L433 170M250.845 220L433 220" stroke="white" stroke-width="20" stroke-linecap="round"/>
</g>
<defs>
<clipPath id="clip0_15_3">
<rect width="512" height="512" fill="white"/>
</clipPath>
</defs>
</svg>
