<svg xmlns="http://www.w3.org/2000/svg" version="1.1" xmlns:xlink="http://www.w3.org/1999/xlink" width="512"
  height="512" x="0" y="0" viewBox="0 0 512 512" style="enable-background:new 0 0 512 512" xml:space="preserve"
  class="">
  <g>
    <path
      d="M467 50H45C20.187 50 0 70.187 0 95v228c0 24.813 20.187 45 45 45h20v64c0 16.542 13.458 30 30 30h114c16.542 0 30-13.458 30-30v-64h228c24.813 0 45-20.187 45-45V95c0-24.813-20.187-45-45-45zM209 432H95v-87c0-31.951 21.321-65 57-65s57 33.049 57 65zm-98-223c0-22.607 18.393-41 41-41s41 18.393 41 41-18.393 41-41 41-41-18.393-41-41zm371 114c0 8.271-6.729 15-15 15H238.733c-1.472-21.162-9.523-41.832-22.632-57.592-5.545-6.666-11.837-12.311-18.708-16.862C213.028 250.511 223 230.9 223 209c0-39.149-31.851-71-71-71s-71 31.851-71 71c0 21.9 9.972 41.511 25.608 54.545-6.872 4.552-13.164 10.196-18.708 16.862C74.79 296.168 66.74 316.838 65.267 338H45c-8.271 0-15-6.729-15-15V95c0-8.271 6.729-15 15-15h422c8.271 0 15 6.729 15 15z"
      fill="#ffffff" opacity="1" data-original="#000000" class=""></path>
    <path
      d="M432 130h-80c-8.284 0-15 6.716-15 15s6.716 15 15 15h80c8.284 0 15-6.716 15-15s-6.716-15-15-15zM432 194h-80c-8.284 0-15 6.716-15 15s6.716 15 15 15h80c8.284 0 15-6.716 15-15s-6.716-15-15-15zM432 258h-80c-8.284 0-15 6.716-15 15s6.716 15 15 15h80c8.284 0 15-6.716 15-15s-6.716-15-15-15z"
      fill="#ffffff" opacity="1" data-original="#000000" class=""></path>
    <circle cx="288" cy="273" r="15" fill="#ffffff" opacity="1" data-original="#000000" class=""></circle>
    <circle cx="288" cy="209" r="15" fill="#ffffff" opacity="1" data-original="#000000" class=""></circle>
    <circle cx="288" cy="145.002" r="15" fill="#ffffff" opacity="1" data-original="#000000" class=""></circle>
  </g>
</svg>