<svg width="512" height="512" viewBox="0 0 512 512" fill="none" xmlns="http://www.w3.org/2000/svg">
  <path fill-rule="evenodd" clip-rule="evenodd"
    d="M50 0C22.3858 0 0 22.3858 0 50V462C0 489.614 22.3858 512 50 512H462C489.614 512 512 489.614 512 462V50C512 22.3858 489.614 0 462 0H50ZM166.642 84C176.299 84 183.593 86.4619 188.524 91.3857C193.558 96.2069 196.075 104.054 196.075 114.928V170.013H170.187V122.16C170.187 116.005 169.211 111.543 167.259 108.773C165.41 105.901 162.533 104.465 158.629 104.465C153.185 104.465 149.332 106.619 147.072 110.927C144.812 115.133 143.682 121.185 143.682 129.084V170.013H117.793V122.16C117.793 118.159 117.382 114.876 116.561 112.312C115.739 109.645 114.506 107.696 112.862 106.465C111.218 105.131 109.061 104.465 106.39 104.465C102.589 104.465 99.5584 105.542 97.2983 107.696C95.1409 109.747 93.5999 112.774 92.6753 116.774C91.8535 120.775 91.4426 125.699 91.4426 131.546V170.013H65.4V85.5387H85.1245L88.8229 96.1557H89.9016C91.5453 93.4886 93.5999 91.2831 96.0655 89.5393C98.5311 87.6929 101.356 86.308 104.541 85.3848C107.726 84.4616 111.167 84 114.865 84C121.029 84 126.217 85.0258 130.429 87.0774C134.641 89.129 137.929 92.1038 140.292 96.0018H141.833C144.504 92.0012 148.048 89.0264 152.465 87.0774C156.883 85.0258 161.609 84 166.642 84ZM206.898 85.5387H234.636L249.891 133.392C250.302 134.623 250.611 135.905 250.816 137.239C251.124 138.47 251.381 139.803 251.587 141.239C251.792 142.573 251.946 144.009 252.049 145.548H252.511C252.819 143.188 253.179 141.034 253.59 139.085C254.103 137.034 254.617 135.187 255.131 133.546L270.387 85.5387H297.508L262.682 178.322C260.421 184.579 257.545 189.811 254.052 194.016C250.662 198.325 246.553 201.556 241.724 203.71C236.999 205.864 231.451 206.941 225.082 206.941C222.513 206.941 220.253 206.788 218.301 206.48C216.349 206.275 214.654 206.018 213.216 205.71V185.246C214.346 185.451 215.682 185.656 217.223 185.861C218.866 186.066 220.561 186.169 222.308 186.169C225.595 186.169 228.318 185.502 230.475 184.169C232.632 182.835 234.43 181.04 235.869 178.783C237.307 176.629 238.488 174.27 239.413 171.705L240.337 169.09L206.898 85.5387ZM127.347 258.077C128.067 261.052 128.632 263.411 129.042 265.155L136.593 298.237H164.485L188.37 213.763H163.098L154.315 248.845C153.698 251.204 153.082 254.179 152.465 257.77C151.849 261.257 151.284 264.745 150.77 268.233C150.359 271.618 150.051 274.387 149.846 276.542H149.383C149.281 274.285 148.972 271.515 148.459 268.233C147.945 264.95 147.38 261.77 146.764 258.693C146.25 255.513 145.788 253.102 145.377 251.461L136.747 213.763H108.085L98.8393 251.307C98.7365 252.025 98.4797 253.41 98.0688 255.461C97.6578 257.513 97.1955 259.872 96.6819 262.539L95.4491 270.233C95.1409 272.797 94.9354 274.9 94.8327 276.542H94.3704C94.165 274.285 93.8054 271.464 93.2917 268.079C92.8808 264.694 92.3671 261.257 91.7507 257.77C91.2371 254.282 90.6721 251.307 90.0557 248.845L81.5803 213.763H56L79.577 298.237H107.161L114.865 265.925L116.406 258.231C117.126 255.154 117.845 251.974 118.564 248.691C119.283 245.409 119.899 242.434 120.413 239.767C121.029 236.997 121.44 234.946 121.646 233.612H122.262C122.57 234.946 122.981 236.997 123.495 239.767C124.111 242.434 124.728 245.409 125.344 248.691C126.063 251.974 126.731 255.102 127.347 258.077ZM279.883 255.769C279.883 262.847 278.907 269.105 276.955 274.541C275.106 279.978 272.332 284.594 268.634 288.389C265.038 292.185 260.672 295.057 255.535 297.006C250.501 298.853 244.697 299.776 238.122 299.776C232.164 299.776 226.616 298.853 221.48 297.006C216.446 295.057 212.08 292.236 208.381 288.543C204.786 284.748 201.961 280.132 199.906 274.695C197.851 269.156 196.824 262.847 196.824 255.769C196.824 246.434 198.468 238.536 201.755 232.073C205.145 225.611 209.974 220.687 216.24 217.302C222.507 213.917 229.955 212.224 238.585 212.224C246.7 212.224 253.84 213.917 260.004 217.302C266.168 220.687 270.996 225.611 274.489 232.073C278.085 238.536 279.883 246.434 279.883 255.769ZM223.175 255.769C223.175 261.001 223.688 265.412 224.716 269.002C225.743 272.592 227.387 275.311 229.647 277.157C231.907 278.901 234.835 279.773 238.43 279.773C242.129 279.773 245.057 278.901 247.214 277.157C249.371 275.311 250.964 272.592 251.991 269.002C253.018 265.412 253.532 261.001 253.532 255.769C253.532 250.538 253.018 246.178 251.991 242.69C250.964 239.203 249.32 236.587 247.06 234.843C244.903 233.099 241.975 232.227 238.276 232.227C233.037 232.227 229.185 234.228 226.719 238.228C224.356 242.126 223.175 247.973 223.175 255.769ZM351.377 212.532C349.733 212.327 348.244 212.224 346.908 212.224C343.415 212.224 340.077 212.942 336.892 214.378C333.81 215.712 331.036 217.558 328.571 219.918C326.105 222.174 324.05 224.739 322.407 227.611H321.328L317.321 213.763H297.751V298.237H323.794V255.923C323.794 251.922 324.41 248.691 325.643 246.229C326.875 243.665 328.519 241.716 330.574 240.382C332.628 238.946 334.889 237.972 337.354 237.459C339.82 236.843 342.285 236.536 344.751 236.536C346.497 236.536 348.09 236.638 349.528 236.843C350.966 236.946 352.148 237.1 353.072 237.305L355.23 212.994C354.305 212.788 353.021 212.635 351.377 212.532ZM394.823 230.689C394.823 233.971 394.669 237.459 394.361 241.152C394.155 244.742 393.847 248.23 393.436 251.615H393.898C394.823 250.179 395.799 248.743 396.826 247.306C397.854 245.768 398.932 244.229 400.062 242.69C401.192 241.152 402.323 239.767 403.453 238.536L425.026 213.763H453.997L422.407 250.076L456 298.237H426.259L404.531 265.925L394.823 273.464V298.237H368.781V181.297H394.823V230.689ZM67.4033 426.461H80.9639V309.521H67.4033V426.461ZM138.414 342.603C148.481 342.603 155.929 344.808 160.758 349.219C165.586 353.63 168 360.657 168 370.299V426.461H158.138L155.518 414.767H154.902C152.539 417.742 150.074 420.255 147.505 422.307C145.04 424.256 142.163 425.692 138.876 426.615C135.691 427.538 131.787 428 127.164 428C122.233 428 117.764 427.128 113.758 425.384C109.854 423.64 106.772 420.973 104.512 417.383C102.252 413.69 101.122 409.074 101.122 403.535C101.122 395.328 104.358 389.02 110.83 384.609C117.302 380.095 127.267 377.634 140.725 377.223L154.748 376.762V371.838C154.748 364.965 153.258 360.195 150.279 357.528C147.3 354.861 143.088 353.527 137.643 353.527C133.328 353.527 129.219 354.194 125.315 355.528C121.411 356.759 117.764 358.195 114.374 359.836L110.214 349.681C113.809 347.732 118.073 346.09 123.004 344.757C127.935 343.321 133.072 342.603 138.414 342.603ZM142.42 386.609C132.147 387.02 125.007 388.661 121 391.533C117.097 394.405 115.145 398.457 115.145 403.689C115.145 408.305 116.532 411.69 119.305 413.844C122.182 415.998 125.829 417.075 130.246 417.075C137.232 417.075 143.036 415.178 147.659 411.382C152.282 407.484 154.594 401.535 154.594 393.533V386.148L142.42 386.609ZM206.763 347.834C206.969 344.757 207.071 341.474 207.071 337.987V309.521H193.511V426.461H203.219L205.993 415.998H207.071C209.434 419.281 212.67 422.102 216.78 424.461C220.889 426.82 226.18 428 232.652 428C239.432 428 245.391 426.41 250.527 423.23C255.664 420.05 259.619 415.28 262.393 408.92C265.269 402.56 266.707 394.662 266.707 385.224C266.707 371.068 263.574 360.451 257.307 353.374C251.143 346.193 242.925 342.603 232.652 342.603C226.18 342.603 220.889 343.782 216.78 346.142C212.67 348.501 209.434 351.424 207.071 354.912H206.301C206.506 353.168 206.661 350.809 206.763 347.834ZM216.471 357.22C219.862 354.963 224.485 353.835 230.34 353.835C237.942 353.835 243.541 356.451 247.137 361.682C250.835 366.914 252.684 374.71 252.684 385.071C252.684 395.328 250.835 403.176 247.137 408.612C243.541 414.049 238.045 416.768 230.648 416.768C221.608 416.768 215.393 414.1 212.003 408.766C208.715 403.33 207.071 395.534 207.071 385.378V384.763C207.071 377.685 207.791 371.889 209.229 367.376C210.667 362.759 213.081 359.374 216.471 357.22Z"
    fill="white" />
</svg>