<svg xmlns="http://www.w3.org/2000/svg" version="1.1" xmlns:xlink="http://www.w3.org/1999/xlink" width="512"
  height="512" x="0" y="0" viewBox="0 0 30 30" style="enable-background:new 0 0 512 512" xml:space="preserve" class="">
  <g>
    <path
      d="M29.332 25.206V12.378c.167-1.91-2.063-3.493-3.201-4.719a.452.452 0 0 0-.051-.034l-.9-.9v-3.55A2.93 2.93 0 0 0 22.25.25H7.724a2.929 2.929 0 0 0-2.926 2.925v3.553l-.9.9a.54.54 0 0 0-.05.033L1.713 9.79A3.629 3.629 0 0 0 .64 12.378v12.828c.004.339.078.668 0 .999-.014 1.937 1.62 3.548 3.55 3.545h21.597c2.535-.056 3.783-2.207 3.545-4.544zM25.176 8.841l2.025 2.01c.407.404.635.954.633 1.527v.822l-2.658 1.285zM6.298 3.175A1.427 1.427 0 0 1 7.724 1.75H22.25a1.427 1.427 0 0 1 1.426 1.425v12.038l-7.6 3.673a2.479 2.479 0 0 1-2.181 0l-7.6-3.673zm-4.158 9.2a2.141 2.141 0 0 1 .633-1.527l2.025-2.01v5.647L2.14 13.2zm25.695 12.831c-.025 1.869-.672 2.994-2.041 3.044H4.187a1.688 1.688 0 0 1-.491-.068c-.978-.263-1.55-1.331-1.55-2.976V14.869l11.1 5.367a3.966 3.966 0 0 0 3.489 0l11.1-5.367z"
      fill="#ffffff" opacity="1" data-original="#ffffff" class=""></path>
    <path
      d="M21.408 9.766a.75.75 0 0 0-.75-.75H9.316a.75.75 0 0 0 0 1.5h11.342a.75.75 0 0 0 .75-.75zM19.074 13.641a.75.75 0 0 0-.75-.75h-6.673a.75.75 0 0 0 0 1.5h6.673a.75.75 0 0 0 .75-.75zM11.651 6.641h6.673c.979-.004.982-1.496 0-1.5h-6.673c-.979.004-.983 1.496 0 1.5z"
      fill="#ffffff" opacity="1" data-original="#ffffff" class=""></path>
  </g>
</svg>