<svg width="512" height="512" viewBox="0 0 512 512" fill="none" xmlns="http://www.w3.org/2000/svg">
<g clip-path="url(#clip0_15_10)">
<path d="M10.3227 489.747L11 488.001V486.129L11 265.772C11 258.239 19.0143 253.411 25.6741 256.932L219.555 359.44L224.477 362.042L229.281 359.229L250.948 346.545C254.068 344.718 257.932 344.718 261.052 346.545L283.193 359.507L287.998 362.32L292.92 359.717L487.326 256.932C493.986 253.411 502 258.239 502 265.772L502 489.687V490.584L502.16 491.468C503.267 497.581 499.001 503.5 492.286 503.5L19.7142 503.5C12.3261 503.5 7.84845 496.123 10.3227 489.747Z" stroke="white" stroke-width="20"/>
<path d="M250.948 346.545L14.6621 484.87C5.86034 490.023 9.515 503.5 19.7142 503.5L492.286 503.5C502.485 503.5 506.14 490.023 497.338 484.87L261.052 346.545C257.932 344.718 254.068 344.718 250.948 346.545Z" stroke="white" stroke-width="20"/>
<mask id="path-3-inside-1_15_10" fill="white">
<path fill-rule="evenodd" clip-rule="evenodd" d="M103 20C91.9543 20 83 28.9543 83 40V295.929L224.229 370.599L245.896 357.915C252.137 354.262 259.863 354.262 266.104 357.915L288.246 370.877L427 297.515V40C427 28.9543 418.046 20 407 20H103Z"/>
</mask>
<path d="M83 295.929H63V307.978L73.6519 313.61L83 295.929ZM224.229 370.599L214.881 388.28L224.724 393.484L234.333 387.859L224.229 370.599ZM245.896 357.915L235.792 340.655L235.792 340.655L245.896 357.915ZM266.104 357.915L256 375.175L256 375.175L266.104 357.915ZM288.246 370.877L278.141 388.137L287.75 393.762L297.594 388.558L288.246 370.877ZM427 297.515L436.348 315.196L447 309.564V297.515H427ZM103 40C103 39.9856 103.001 39.9779 103.001 39.9758C103.001 39.9737 103.001 39.9749 103 39.9788C103 39.9826 102.998 39.9874 102.997 39.9926C102.995 39.9977 102.993 40.0023 102.992 40.0061C102.989 40.0138 102.987 40.0162 102.988 40.0139C102.99 40.0114 102.994 40.0061 103 40C103.006 39.9939 103.011 39.9899 103.014 39.9881C103.016 39.9867 103.014 39.9885 103.006 39.9918C103.002 39.9934 102.998 39.9951 102.993 39.9967C102.987 39.9983 102.983 39.9995 102.979 40.0003C102.975 40.0011 102.974 40.0011 102.976 40.0009C102.978 40.0007 102.986 40 103 40V0C80.9086 0 63 17.9086 63 40H103ZM103 295.929V40H63V295.929H103ZM73.6519 313.61L214.881 388.28L233.577 352.918L92.3481 278.248L73.6519 313.61ZM234.333 387.859L256 375.175L235.792 340.655L214.125 353.339L234.333 387.859ZM256 375.175L256 375.175L276.208 340.655C263.727 333.348 248.273 333.348 235.792 340.655L256 375.175ZM256 375.175L278.141 388.137L298.35 353.617L276.208 340.655L256 375.175ZM297.594 388.558L436.348 315.196L417.652 279.835L278.897 353.196L297.594 388.558ZM407 40V297.515H447V40H407ZM407 40C407.014 40 407.022 40.0007 407.024 40.0009C407.026 40.0011 407.025 40.0011 407.021 40.0003C407.017 39.9995 407.013 39.9983 407.007 39.9967C407.002 39.9951 406.998 39.9934 406.994 39.9918C406.986 39.9885 406.984 39.9867 406.986 39.9881C406.989 39.9899 406.994 39.9939 407 40C407.006 40.0061 407.01 40.0114 407.012 40.014C407.013 40.0162 407.011 40.0138 407.008 40.0061C407.007 40.0023 407.005 39.9977 407.003 39.9926C407.002 39.9874 407 39.9826 407 39.9788C406.999 39.9749 406.999 39.9737 406.999 39.9758C406.999 39.9779 407 39.9856 407 40H447C447 17.9086 429.091 0 407 0V40ZM103 40H407V0H103V40Z" fill="white" mask="url(#path-3-inside-1_15_10)"/>
<path fill-rule="evenodd" clip-rule="evenodd" d="M83 190.277L9.60999 233.24C1.47314 238.003 -1.34095 246.324 -9.23872e-07 253.896V492C-9.23872e-07 503.046 8.9543 512 20 512H492C503.046 512 512 503.046 512 492V253.895C513.341 246.324 510.527 238.003 502.39 233.24L427 189.106V212.281L492.286 250.5L492.29 250.502L492 252.138V253.895V492H20V253.896V252.138L19.7103 250.502L19.7142 250.5L83 213.452V190.277Z" fill="white"/>
<path d="M146 119H365" stroke="white" stroke-width="20" stroke-linecap="round"/>
<path d="M146 170H365" stroke="white" stroke-width="20" stroke-linecap="round"/>
<path d="M146 221H365" stroke="white" stroke-width="20" stroke-linecap="round"/>
<path d="M145 272H364" stroke="white" stroke-width="20" stroke-linecap="round"/>
</g>
<defs>
<clipPath id="clip0_15_10">
<rect width="512" height="512" fill="white"/>
</clipPath>
</defs>
</svg>
